<?xml version="1.0" standalone="no"?>
<!DOCTYPE svg PUBLIC "-//W3C//DTD SVG 20010904//EN"
 "http://www.w3.org/TR/2001/REC-SVG-20010904/DTD/svg10.dtd">
<svg version="1.0" xmlns="http://www.w3.org/2000/svg"
 width="76.000000pt" height="40.000000pt" viewBox="0 0 76.000000 40.000000"
 preserveAspectRatio="xMidYMid meet">
<metadata>
Created by potrace 1.10, written by Peter Selinger 2001-2011
</metadata>
<g transform="translate(0.000000,40.000000) scale(0.100000,-0.100000)"
fill="#000000" stroke="none">
<path d="M43 288 c-12 -6 -27 -24 -32 -41 -14 -38 -14 -37 4 -37 8 0 15 -5 15
-10 0 -6 -7 -27 -15 -47 -21 -50 -19 -63 10 -63 23 0 25 4 25 45 l0 45 60 0
c47 0 60 3 60 15 0 12 -13 15 -61 15 -57 0 -60 1 -57 23 3 19 10 22 61 25 49
3 57 6 57 22 0 17 -7 20 -52 19 -29 0 -63 -5 -75 -11z"/>
<path d="M180 280 c0 -18 7 -20 60 -20 53 0 60 2 60 20 0 18 -7 20 -60 20 -53
0 -60 -2 -60 -20z"/>
<path d="M317 294 c-4 -4 -7 -13 -7 -21 0 -9 16 -13 56 -13 47 0 55 3 52 18
-2 13 -15 18 -48 20 -25 2 -49 0 -53 -4z"/>
<path d="M430 280 c0 -17 7 -20 40 -20 33 0 40 3 40 20 0 17 -7 20 -40 20 -33
0 -40 -3 -40 -20z"/>
<path d="M527 294 c-18 -19 -5 -34 29 -34 28 0 35 3 32 18 -3 17 -48 29 -61
16z"/>
<path d="M600 280 c0 -13 7 -20 20 -20 13 0 20 7 20 20 0 13 -7 20 -20 20 -13
0 -20 -7 -20 -20z"/>
<path d="M650 280 c0 -13 7 -20 20 -20 13 0 20 7 20 20 0 13 -7 20 -20 20 -13
0 -20 -7 -20 -20z"/>
<path d="M710 195 c0 -98 1 -105 20 -105 19 0 20 7 20 105 0 98 -1 105 -20
105 -19 0 -20 -7 -20 -105z"/>
<path d="M180 226 c0 -11 14 -16 47 -18 62 -4 71 -28 11 -28 -51 0 -68 -13
-68 -51 0 -33 14 -39 91 -39 l59 0 0 58 c0 75 -16 92 -88 92 -39 0 -52 -4 -52
-14z m100 -91 c0 -10 -11 -15 -35 -15 -24 0 -35 5 -35 15 0 10 11 15 35 15 24
0 35 -5 35 -15z"/>
<path d="M340 165 c0 -68 2 -75 20 -75 18 0 20 7 20 61 0 60 0 60 28 57 26 -3
27 -6 30 -60 3 -50 6 -58 22 -58 18 0 20 7 20 58 0 75 -16 92 -88 92 l-52 0 0
-75z"/>
<path d="M482 228 c3 -7 16 -41 28 -76 21 -57 26 -63 48 -60 21 2 30 15 54 72
15 38 28 71 28 73 0 12 -42 0 -47 -14 -3 -10 -13 -34 -21 -53 l-14 -35 -17 50
c-14 38 -23 51 -41 53 -16 3 -21 0 -18 -10z"/>
<path d="M650 165 c0 -68 2 -75 20 -75 18 0 20 7 20 75 0 68 -2 75 -20 75 -18
0 -20 -7 -20 -75z"/>
</g>
</svg>
